<svg width="52" height="37" viewBox="0 0 52 37" fill="none" xmlns="http://www.w3.org/2000/svg">
<path d="M28.3511 25.243C28.3511 23.2143 28.5355 21.0474 28.9043 18.7421C29.3191 16.3907 29.9415 14.0854 30.7713 11.8262C31.6472 9.52087 32.7535 7.35389 34.0904 5.32523C35.4734 3.25047 37.133 1.47539 39.0691 0L46.6064 5.25607C45.3156 6.73146 44.3475 8.13769 43.7021 9.47477C43.0567 10.8118 42.5496 12.1489 42.1809 13.486C43.5638 13.7165 44.8546 14.2006 46.0532 14.9383C47.2518 15.6299 48.289 16.5059 49.1649 17.5664C50.0408 18.5807 50.7323 19.7564 51.2394 21.0935C51.7465 22.3844 52 23.7676 52 25.243C52 26.8567 51.6773 28.3782 51.0319 29.8075C50.4326 31.1907 49.5798 32.4355 48.4734 33.5421C47.4131 34.6025 46.1684 35.4555 44.7394 36.1009C43.3103 36.7003 41.8121 37 40.2447 37C38.5851 37 37.0177 36.7003 35.5426 36.1009C34.1135 35.4555 32.8457 34.6025 31.7394 33.5421C30.6791 32.4355 29.8493 31.1907 29.25 29.8075C28.6507 28.3782 28.3511 26.8567 28.3511 25.243ZM0 25.243C0 23.2143 0.184397 21.0474 0.553191 18.7421C0.968085 16.3907 1.59043 14.0854 2.42021 11.8262C3.2961 9.52087 4.42553 7.35389 5.80851 5.32523C7.19149 3.25047 8.85106 1.47539 10.7872 0L18.2553 5.25607C16.9645 6.73146 15.9965 8.13769 15.3511 9.47477C14.7518 10.8118 14.2677 12.1489 13.8989 13.486C15.2819 13.7165 16.5727 14.2006 17.7713 14.9383C18.9699 15.6299 19.984 16.5059 20.8138 17.5664C21.6897 18.5807 22.3812 19.7564 22.8883 21.0935C23.3954 22.3844 23.6489 23.7676 23.6489 25.243C23.6489 26.8567 23.3262 28.3782 22.6809 29.8075C22.0816 31.1907 21.2287 32.4355 20.1223 33.5421C19.0621 34.6025 17.8174 35.4555 16.3883 36.1009C14.9592 36.7003 13.461 37 11.8936 37C10.234 37 8.66667 36.7003 7.19149 36.1009C5.76241 35.4555 4.51773 34.6025 3.45745 33.5421C2.39716 32.4355 1.54433 31.1907 0.898936 29.8075C0.299645 28.3782 0 26.8567 0 25.243Z" fill="#383859"/>
</svg>
