<svg width="32" height="32" viewBox="0 0 32 32" fill="none" xmlns="http://www.w3.org/2000/svg">
<rect width="32.0003" height="32.0003" rx="16.0001" fill="#383859"/>
<path d="M15.983 11.8779C13.7173 11.8779 11.8818 13.7143 11.8818 15.9791C11.8818 18.2448 13.7173 20.0812 15.983 20.0812C18.247 20.0812 20.0842 18.2448 20.0842 15.9791C20.0842 13.7143 18.247 11.8779 15.983 11.8779ZM15.983 18.644C14.5113 18.644 13.3181 17.4508 13.3181 15.98C13.3181 14.5082 14.5113 13.316 15.983 13.316C17.4548 13.316 18.6462 14.5082 18.6462 15.98C18.6462 17.4508 17.4548 18.644 15.983 18.644Z" fill="white"/>
<path d="M20.2444 12.6822C20.7725 12.6822 21.2007 12.254 21.2007 11.7258C21.2007 11.1977 20.7725 10.7695 20.2444 10.7695C19.7162 10.7695 19.2881 11.1977 19.2881 11.7258C19.2881 12.254 19.7162 12.6822 20.2444 12.6822Z" fill="white"/>
<path d="M23.5522 10.7554C23.1361 9.68287 22.2889 8.83478 21.2164 8.4205C20.5963 8.18718 19.9407 8.0621 19.2772 8.0479C18.4229 8.01065 18.1523 8 15.9859 8C13.8195 8 13.5419 8 12.6947 8.0479C12.0329 8.06121 11.3773 8.1863 10.7572 8.4205C9.68376 8.83478 8.83656 9.68287 8.42138 10.7554C8.18807 11.3764 8.06299 12.0311 8.04968 12.6947C8.01153 13.5481 8 13.8186 8 15.9859C8 18.1522 8 18.4281 8.04968 19.2771C8.06299 19.9407 8.18807 20.5954 8.42138 21.2172C8.83744 22.2889 9.68465 23.137 10.7581 23.5522C11.3755 23.7934 12.0311 23.9301 12.6964 23.9514C13.5507 23.9886 13.8213 24.0001 15.9877 24.0001C18.1541 24.0001 18.4317 24.0001 19.2789 23.9514C19.9416 23.938 20.5972 23.8121 21.2182 23.5797C22.2907 23.1636 23.1379 22.3164 23.554 21.2439C23.7873 20.6229 23.9124 19.9682 23.9257 19.3046C23.9638 18.4512 23.9754 18.1806 23.9754 16.0134C23.9754 13.8461 23.9754 13.5711 23.9257 12.7222C23.9141 12.0497 23.7899 11.3835 23.5522 10.7554ZM22.4717 19.2115C22.4655 19.7224 22.3732 20.229 22.1958 20.7089C21.9252 21.4071 21.3743 21.9589 20.677 22.2268C20.2024 22.4033 19.7021 22.4956 19.1955 22.5027C18.3528 22.5417 18.115 22.5515 15.954 22.5515C13.7911 22.5515 13.5702 22.5515 12.7115 22.5027C12.2067 22.4965 11.7046 22.4033 11.2309 22.2268C10.531 21.9598 9.97651 21.408 9.70594 20.7089C9.53206 20.2352 9.43803 19.734 9.43004 19.2283C9.3919 18.3855 9.38302 18.1478 9.38302 15.9868C9.38302 13.8249 9.38302 13.604 9.43004 12.7443C9.43625 12.2334 9.52851 11.7277 9.70594 11.2478C9.97651 10.5478 10.531 9.99691 11.2309 9.729C11.7046 9.55335 12.2067 9.4602 12.7115 9.45311C13.5552 9.41496 13.792 9.40432 15.954 9.40432C18.1159 9.40432 18.3377 9.40432 19.1955 9.45311C19.7021 9.45932 20.2024 9.55247 20.677 9.729C21.3743 9.9978 21.9252 10.5496 22.1958 11.2478C22.3697 11.7215 22.4637 12.2227 22.4717 12.7284C22.5098 13.572 22.5196 13.8089 22.5196 15.9708C22.5196 18.1318 22.5196 18.3643 22.4814 19.2123H22.4717V19.2115Z" fill="white"/>
</svg>
