<svg width="32" height="32" viewBox="0 0 32 32" fill="none" xmlns="http://www.w3.org/2000/svg">
<rect width="32" height="32" rx="16" fill="#383859"/>
<path fill-rule="evenodd" clip-rule="evenodd" d="M21.5544 17.9552C20.9122 17.8734 20.2819 17.7168 19.6762 17.4885C19.1837 17.3073 18.6309 17.4238 18.2537 17.7885C17.7555 18.2932 16.9728 18.4095 16.3997 17.9921C15.4944 17.3328 14.6976 16.5362 14.0382 15.6311C13.6207 15.0581 13.737 14.2754 14.2417 13.7774C14.5997 13.4012 14.7157 12.8557 14.5417 12.3663C14.2926 11.7484 14.1172 11.1032 14.0194 10.4441C13.8917 9.79704 13.3232 9.33119 12.6635 9.33301H10.6742C10.2951 9.33255 9.93287 9.48949 9.67399 9.76635C9.42304 10.0445 9.30187 10.416 9.34058 10.7886C9.55558 12.8577 10.2604 14.8458 11.3966 16.5885C12.4271 18.2075 13.8004 19.5805 15.4197 20.6108C17.1651 21.7338 19.1469 22.4374 21.2099 22.6664H21.321C21.6591 22.6686 21.9852 22.5413 22.2323 22.3108C22.5098 22.057 22.6672 21.6978 22.6657 21.3218V19.333C22.6926 18.6603 22.2176 18.0715 21.5544 17.9552Z" stroke="white" stroke-width="0.9375" stroke-linecap="round"/>
</svg>
