<svg width="32" height="32" viewBox="0 0 32 32" fill="none" xmlns="http://www.w3.org/2000/svg">
<rect width="32.0003" height="32.0003" rx="16.0001" fill="#383859"/>
<path d="M25.1114 11.6121C24.9013 10.8283 24.2847 10.2098 23.5018 9.99882C22.0713 9.60601 16.3481 9.59962 16.3481 9.59962C16.3481 9.59962 10.6259 9.59322 9.19439 9.96867C8.42704 10.1779 7.79307 10.81 7.58113 11.5929C7.20385 13.0235 7.2002 15.9905 7.2002 15.9905C7.2002 15.9905 7.19654 18.9722 7.57108 20.3882C7.78119 21.1711 8.39781 21.7895 9.1816 22.0005C10.6268 22.3933 16.3344 22.3997 16.3344 22.3997C16.3344 22.3997 22.0576 22.4061 23.4881 22.0316C24.2701 21.8215 24.8895 21.2039 25.1023 20.4211C25.4805 18.9914 25.4832 16.0252 25.4832 16.0252C25.4832 16.0252 25.5015 13.0426 25.1114 11.6121ZM14.5174 18.7393L14.522 13.2582L19.2787 16.0033L14.5174 18.7393Z" fill="white"/>
</svg>
